<?xml version="1.0" encoding="iso-8859-1"?>
<!-- Generator: Adobe Illustrator 20.1.0, SVG Export Plug-In . SVG Version: 6.00 Build 0)  -->
<svg version="1.1" id="Cross" xmlns="http://www.w3.org/2000/svg" xmlns:xlink="http://www.w3.org/1999/xlink" x="0px" y="0px"
	 viewBox="0 0 26 32" style="enable-background:new 0 0 26 32;" xml:space="preserve">
<g>
	<path d="M25,6h-8V1c0-0.552-0.448-1-1-1h-6C9.448,0,9,0.448,9,1v5H1C0.448,6,0,6.448,0,7v6c0,0.552,0.448,1,1,1h8v17
		c0,0.552,0.448,1,1,1h6c0.552,0,1-0.448,1-1V14h8c0.552,0,1-0.448,1-1V7C26,6.448,25.552,6,25,6z M24,12h-8c-0.552,0-1,0.448-1,1
		v17h-4V13c0-0.552-0.448-1-1-1H2V8h8c0.552,0,1-0.448,1-1V2h4v5c0,0.552,0.448,1,1,1h8V12z"/>
	<rect x="12" y="3" width="2" height="2"/>
	<rect x="3" y="9" width="2" height="2"/>
	<rect x="21" y="9" width="2" height="2"/>
</g>
</svg>
